  <!-- idk if this is better -->
<svg width="100%" height="100%" viewBox="0 0 800 400" xmlns="http://www.w3.org/2000/svg" style="background-color: #121212; display: block;">
  <!-- Top Accent Bar -->
  <rect x="0" y="0" width="800" height="12" fill="#A600FF"/>
  
  <!-- Bottom Accent Bar -->
  <rect x="0" y="388" width="800" height="12" fill="#A600FF"/>

  <!-- IDE Window Frame -->
  <rect x="50" y="20" width="700" height="360" rx="10" ry="10" fill="#1E1E1E" stroke="#A600FF" stroke-width="1.5"/>
  
  <!-- Main Content Area -->
  <rect x="60" y="50" width="680" height="320" fill="#1E1E1E" stroke="#A600FF" stroke-width="0.8"/>
  
  <!-- Left Sidebar Icons -->
  <polygon points="80,90 92,82 104,90 104,106 92,114 80,106" fill="#A600FF" opacity="0.8"/>
  <polygon points="80,125 92,117 104,125 104,141 92,149 80,141" fill="#A600FF" opacity="0.6"/>
  <polygon points="80,160 92,152 104,160 104,176 92,184 80,176" fill="#A600FF" opacity="0.8"/>
  <polygon points="80,195 92,187 104,195 104,211 92,219 80,211" fill="#A600FF" opacity="0.6"/>
  <polygon points="80,230 92,222 104,230 104,246 92,254 80,246" fill="#A600FF" opacity="0.8"/>
  
  <!-- left side right arrows -->
  <polygon points="115,93 123,98 115,103" fill="#A600FF" opacity="0.4"/>
  <polygon points="115,128 123,133 115,138" fill="#A600FF" opacity="0.4"/>
  <polygon points="115,163 123,168 115,173" fill="#A600FF" opacity="0.4"/>
  <polygon points="115,198 123,203 115,208" fill="#A600FF" opacity="0.4"/>
  <polygon points="115,233 123,238 115,243" fill="#A600FF" opacity="0.4"/>

  <!-- internal panel -->
  <rect x="140" y="60" width="600" height="280" rx="5" ry="5" fill="#252526" stroke="#A600FF" stroke-width="0.8"/>
  
  <!-- Header Row inside yo supa panel -->
  <rect x="140" y="60" width="600" height="16" fill="#2D2D2D" stroke="#A600FF" stroke-width="0.4"/>
  
  <!-- column heads -->
  <rect x="420" y="64" width="24" height="8" fill="#A600FF" opacity="0.8"/>
  <rect x="455" y="64" width="24" height="8" fill="#B00B69" opacity="0.8"/>
  <rect x="490" y="64" width="24" height="8" fill="#A600FF" opacity="0.8"/>
  <rect x="525" y="64" width="24" height="8" fill="#B00B69" opacity="0.8"/>

  <!-- pfp -->
  <rect x="160" y="110" width="100" height="100" rx="6" ry="6" fill="#A600FF" opacity="0.9"/>

  <!-- description -->
  <rect x="280" y="110" width="440" height="210" rx="6" ry="6" fill="#33004D" opacity="0.85"/>
</svg>
